<svg width="325" height="274" viewBox="0 0 325 274" fill="none" xmlns="http://www.w3.org/2000/svg">
<rect x="60.5" y="21.9731" width="204" height="230" fill="white" stroke="#4881B7"/>
<rect x="73.0273" y="11.9785" width="204" height="230" transform="rotate(5.97606 73.0273 11.9785)" fill="white" stroke="#4881B7"/>
<rect x="91.5547" y="0.606653" width="204" height="230" transform="rotate(14.0857 91.5547 0.606653)" fill="white" stroke="#4881B7"/>
<path d="M179.417 80.7231H148.583C145.192 80.7231 142.448 83.4981 142.448 86.8898L142.417 136.223L164 126.973L185.583 136.223V86.8898C185.583 83.4981 182.808 80.7231 179.417 80.7231Z" fill="#4881B7"/>
<path d="M127.117 172.411L131.5 184.786L135.859 172.411H140.477V189.473H136.949V184.809L137.301 176.758L132.695 189.473H130.281L125.688 176.77L126.039 184.809V189.473H122.523V172.411H127.117ZM148.059 184.68L150.402 176.793H154.035L148.938 191.442L148.656 192.11C147.898 193.766 146.648 194.594 144.906 194.594C144.414 194.594 143.914 194.52 143.406 194.372V191.805L143.922 191.817C144.562 191.817 145.039 191.719 145.352 191.524C145.672 191.329 145.922 191.004 146.102 190.551L146.5 189.508L142.059 176.793H145.703L148.059 184.68ZM168.438 175.258H163.211V189.473H159.695V175.258H154.539V172.411H168.438V175.258ZM175.609 189.473C175.453 189.168 175.34 188.79 175.27 188.336C174.449 189.25 173.383 189.708 172.07 189.708C170.828 189.708 169.797 189.348 168.977 188.629C168.164 187.911 167.758 187.004 167.758 185.911C167.758 184.567 168.254 183.536 169.246 182.817C170.246 182.098 171.688 181.735 173.57 181.727H175.129V181C175.129 180.415 174.977 179.946 174.672 179.594C174.375 179.243 173.902 179.067 173.254 179.067C172.684 179.067 172.234 179.204 171.906 179.477C171.586 179.75 171.426 180.125 171.426 180.602H168.039C168.039 179.868 168.266 179.188 168.719 178.563C169.172 177.938 169.812 177.45 170.641 177.098C171.469 176.739 172.398 176.559 173.43 176.559C174.992 176.559 176.23 176.954 177.145 177.743C178.066 178.524 178.527 179.625 178.527 181.047V186.543C178.535 187.747 178.703 188.657 179.031 189.274V189.473H175.609ZM172.809 187.118C173.309 187.118 173.77 187.008 174.191 186.79C174.613 186.563 174.926 186.262 175.129 185.887V183.708H173.863C172.168 183.708 171.266 184.293 171.156 185.465L171.145 185.665C171.145 186.086 171.293 186.434 171.59 186.708C171.887 186.981 172.293 187.118 172.809 187.118ZM187.996 185.969C187.996 185.555 187.789 185.231 187.375 184.997C186.969 184.754 186.312 184.54 185.406 184.352C182.391 183.719 180.883 182.438 180.883 180.508C180.883 179.383 181.348 178.446 182.277 177.696C183.215 176.938 184.438 176.559 185.945 176.559C187.555 176.559 188.84 176.938 189.801 177.696C190.77 178.454 191.254 179.438 191.254 180.649H187.867C187.867 180.165 187.711 179.766 187.398 179.454C187.086 179.133 186.598 178.973 185.934 178.973C185.363 178.973 184.922 179.102 184.609 179.36C184.297 179.618 184.141 179.946 184.141 180.344C184.141 180.719 184.316 181.024 184.668 181.258C185.027 181.485 185.629 181.684 186.473 181.856C187.316 182.02 188.027 182.208 188.605 182.418C190.395 183.075 191.289 184.211 191.289 185.829C191.289 186.985 190.793 187.922 189.801 188.641C188.809 189.352 187.527 189.708 185.957 189.708C184.895 189.708 183.949 189.52 183.121 189.145C182.301 188.762 181.656 188.243 181.188 187.586C180.719 186.922 180.484 186.208 180.484 185.442H183.695C183.727 186.043 183.949 186.504 184.363 186.825C184.777 187.145 185.332 187.305 186.027 187.305C186.676 187.305 187.164 187.184 187.492 186.942C187.828 186.692 187.996 186.368 187.996 185.969ZM198.086 184.387L196.867 185.606V189.473H193.48V171.473H196.867V181.446L197.523 180.602L200.77 176.793H204.836L200.254 182.079L205.234 189.473H201.344L198.086 184.387Z" fill="#242424"/>
</svg>
