<svg width="100" height="100" viewBox="0 0 100 100" fill="none" xmlns="http://www.w3.org/2000/svg">
<path d="M52.0833 41.6667C52.0833 34.7917 46.4583 29.1667 39.5833 29.1667C32.7083 29.1667 27.0833 34.7917 27.0833 41.6667C27.0833 48.5417 32.7083 54.1667 39.5833 54.1667C46.4583 54.1667 52.0833 48.5417 52.0833 41.6667ZM39.5833 45.8333C37.2916 45.8333 35.4166 43.9583 35.4166 41.6667C35.4166 39.375 37.2916 37.5 39.5833 37.5C41.875 37.5 43.75 39.375 43.75 41.6667C43.75 43.9583 41.875 45.8333 39.5833 45.8333ZM66.6666 54.1667C71.2916 54.1667 75 50.4583 75 45.8333C75 41.2083 71.2916 37.5 66.6666 37.5C62.0416 37.5 58.2916 41.2083 58.3333 45.8333C58.3333 50.4583 62.0416 54.1667 66.6666 54.1667ZM49.9583 8.375C26.9583 8.375 8.29163 27.0417 8.29163 50.0417C8.29163 73.0417 26.9583 91.7083 49.9583 91.7083C72.9583 91.7083 91.625 73.0417 91.625 50.0417C91.625 27.0417 72.9583 8.375 49.9583 8.375ZM24.3333 71.3333C27.1666 69.0833 33.7916 66.7083 39.5833 66.7083C39.875 66.7083 40.2083 66.75 40.5416 66.75C41.5416 64.0833 43.3333 61.375 45.9583 59C43.625 58.5833 41.4166 58.3333 39.5833 58.3333C34.1666 58.3333 25.4583 60.2083 19.875 64.2917C17.7916 59.9583 16.625 55.125 16.625 50C16.625 31.625 31.5833 16.6667 49.9583 16.6667C68.3333 16.6667 83.2916 31.625 83.2916 50C83.2916 55 82.1666 59.75 80.1666 64.0417C76 61.5833 70.3333 60.4167 66.6666 60.4167C60.3333 60.4167 47.9166 63.7917 47.9166 71.6667V83.25C38.4583 82.7083 30.0416 78.2083 24.3333 71.3333Z" fill="#4881B7"/>
</svg>
